<svg version="1.1" viewBox="0.0 0.0 755.9055118110236 188.9763779527559" fill="none" stroke="none" stroke-linecap="square" stroke-miterlimit="10" xmlns:xlink="http://www.w3.org/1999/xlink" xmlns="http://www.w3.org/2000/svg"><clipPath id="g3e49704a7ec_0_5.0"><path d="m0 0l755.9055 0l0 188.97638l-755.9055 0l0 -188.97638z" clip-rule="nonzero"/></clipPath><g clip-path="url(#g3e49704a7ec_0_5.0)"><path fill="#ffffff" d="m0 0l755.9055 0l0 188.97638l-755.9055 0z" fill-rule="evenodd"/><path fill="#000000" fill-opacity="0.0" d="m21.466938 0l340.9449 0l0 188.97638l-340.9449 0z" fill-rule="evenodd"/><path fill="#1a1a2e" d="m37.420063 152.08818l0 -115.203125l20.640625 0l44.64063 53.125l44.484367 -53.125l20.796875 0l0 115.203125l-17.4375 0l0 -92.0l-47.843742 56.953125l-48.000004 -56.953125l0 92.0l-17.28125 0z" fill-rule="nonzero"/><path fill="#00b4a6" d="m186.22827 152.08818l0 -94.40625q0 -5.75 2.796875 -10.46875q2.796875 -4.71875 7.515625 -7.515625q4.71875 -2.8125 10.484375 -2.8125l73.43753 0q5.765625 0 10.5625 2.8125q4.796875 2.796875 7.59375 7.515625q2.8125 4.71875 2.8125 10.46875l0 94.40625l-17.4375 0l0 -40.3125l-80.484406 0l0 40.3125l-17.28125 0l0 0zm17.28125 -57.59375l80.484406 0l0 -36.328125q0 -1.59375 -1.125 -2.796875q-1.125 -1.203125 -2.875 -1.203125l-72.484406 0q-1.609375 0 -2.8125 1.203125q-1.1875 1.203125 -1.1875 2.796875l0 36.328125l0 0z" fill-rule="nonzero"/><path fill="#ff6b2b" d="m319.1915 152.08818l0 -115.203125l17.28125 0l0 115.203125l-17.28125 0z" fill-rule="nonzero"/><path fill="#000000" fill-opacity="0.0" d="m346.49628 63.0293l410.45667 0l0 109.921265l-410.45667 0z" fill-rule="evenodd"/><path fill="#555566" d="m364.96503 149.95056q-2.203125 0 -4.046875 -1.09375q-1.828125 -1.109375 -2.921875 -2.9375q-1.09375 -1.828125 -1.09375 -4.03125l0 -22.53125q0 -2.203125 1.09375 -4.03125q1.09375 -1.84375 2.921875 -2.9375q1.84375 -1.09375 4.046875 -1.09375l31.1875 0l0 5.46875l-31.1875 0q-1.078125 0 -1.84375 0.765625q-0.765625 0.765625 -0.765625 1.828125l0 22.53125q0 1.0625 0.765625 1.828125q0.765625 0.765625 1.84375 0.765625l31.328125 0l0 5.46875l-31.328125 0l0 0zm46.32614 0q-2.203125 0 -4.046875 -1.09375q-1.828125 -1.109375 -2.921875 -2.9375q-1.09375 -1.828125 -1.09375 -4.03125l0 -22.53125q0 -2.203125 1.09375 -4.03125q1.09375 -1.84375 2.921875 -2.9375q1.84375 -1.09375 4.046875 -1.09375l23.1875 0q2.265625 0 4.09375 1.09375q1.84375 1.09375 2.9375 2.9375q1.109375 1.828125 1.109375 4.03125l0 22.53125q0 2.203125 -1.109375 4.03125q-1.09375 1.828125 -2.9375 2.9375q-1.828125 1.09375 -4.09375 1.09375l-23.1875 0l0 0zm0 -5.46875l23.1875 0q1.078125 0 1.84375 -0.765625q0.765625 -0.765625 0.765625 -1.828125l0 -22.53125q0 -1.0625 -0.765625 -1.828125q-0.765625 -0.765625 -1.84375 -0.765625l-23.1875 0q-1.078125 0 -1.84375 0.765625q-0.765625 0.765625 -0.765625 1.828125l0 22.53125q0 1.0625 0.765625 1.828125q0.765625 0.765625 1.84375 0.765625zm37.25119 5.46875l0 0l0 -38.65625l31.328125 0q2.203125 0 4.03125 1.09375q1.84375 1.09375 2.9375 2.9375q1.109375 1.828125 1.109375 4.03125l0 30.59375l-5.46875 0l0 -30.59375q0 -1.0625 -0.765625 -1.828125q-0.765625 -0.765625 -1.84375 -0.765625l-23.1875 0q-1.0625 0 -1.875 0.765625q-0.796875 0.765625 -0.796875 1.828125l0 30.59375l-5.46875 0zm54.064697 0q-2.203125 0 -4.03125 -1.09375q-1.828125 -1.109375 -2.9375 -2.9375q-1.09375 -1.828125 -1.09375 -4.03125l0 -0.53125l5.46875 0l0 0.53125q0 1.0625 0.765625 1.828125q0.765625 0.765625 1.828125 0.765625l23.203125 0q1.0625 0 1.828125 -0.765625q0.765625 -0.765625 0.765625 -1.828125l0 -5.9375q0 -1.0625 -0.765625 -1.828125q-0.765625 -0.765625 -1.828125 -0.765625l-23.203125 0q-2.203125 0 -4.03125 -1.09375q-1.828125 -1.109375 -2.9375 -2.9375q-1.09375 -1.84375 -1.09375 -4.03125l0 -5.9375q0 -2.203125 1.09375 -4.03125q1.109375 -1.84375 2.9375 -2.9375q1.828125 -1.09375 4.03125 -1.09375l23.203125 0q2.265625 0 4.09375 1.09375q1.828125 1.09375 2.921875 2.9375q1.109375 1.828125 1.109375 4.03125l0 0.53125l-5.53125 0l0 -0.53125q0 -1.0625 -0.765625 -1.828125q-0.765625 -0.765625 -1.828125 -0.765625l-23.203125 0q-1.0625 0 -1.828125 0.765625q-0.765625 0.765625 -0.765625 1.828125l0 5.9375q0 1.0625 0.765625 1.828125q0.765625 0.765625 1.828125 0.765625l23.203125 0q2.265625 0 4.09375 1.109375q1.828125 1.09375 2.921875 2.921875q1.109375 1.828125 1.109375 4.03125l0 5.9375q0 2.203125 -1.109375 4.03125q-1.09375 1.828125 -2.921875 2.9375q-1.828125 1.09375 -4.09375 1.09375l-23.203125 0l0 0zm44.72107 0q-2.1875 0 -4.03125 -1.09375q-1.828125 -1.109375 -2.9375 -2.9375q-1.09375 -1.828125 -1.09375 -4.03125l0 -30.59375l5.46875 0l0 30.59375q0 1.0625 0.765625 1.828125q0.765625 0.765625 1.828125 0.765625l23.203125 0q1.0625 0 1.859375 -0.765625q0.796875 -0.765625 0.796875 -1.828125l0 -30.59375l5.46875 0l0 30.59375q0 2.203125 -1.09375 4.03125q-1.09375 1.828125 -2.9375 2.9375q-1.828125 1.09375 -4.09375 1.09375l-23.203125 0l0 0zm46.26367 0q-2.203125 0 -4.03125 -1.09375q-1.828125 -1.109375 -2.9375 -2.9375q-1.09375 -1.828125 -1.09375 -4.03125l0 -43.265625l5.46875 0l0 43.265625q0 1.0625 0.765625 1.828125q0.765625 0.765625 1.828125 0.765625l6.53125 0l0 5.46875l-6.53125 0l0 0zm20.192688 0q-2.265625 0 -4.09375 -1.09375q-1.828125 -1.109375 -2.90625 -2.9375q-1.0625 -1.828125 -1.0625 -4.03125l0 -43.265625l5.46875 0l0 12.671875l16.734375 0l0 5.46875l-16.734375 0l0 25.125q0 1.0625 0.765625 1.828125q0.765625 0.765625 1.828125 0.765625l14.140625 0l0 5.46875l-14.140625 0l0 0zm19.537415 0l0 0l0 -38.65625l5.46875 0l0 38.65625l-5.46875 0zm0 -45.859375l0 0l0 -5.46875l5.46875 0l0 5.46875l-5.46875 0zm12.989563 45.859375l0 0l0 -38.65625l31.328125 0q2.203125 0 4.03125 1.09375q1.84375 1.09375 2.9375 2.9375q1.109375 1.828125 1.109375 4.03125l0 30.59375l-5.46875 0l0 -30.59375q0 -1.0625 -0.765625 -1.828125q-0.765625 -0.765625 -1.84375 -0.765625l-23.1875 0q-1.0625 0 -1.875 0.765625q-0.796875 0.765625 -0.796875 1.828125l0 30.59375l-5.46875 0zm52.658447 15.265625l0 0l0 -5.53125l24.140625 0q1.0625 0 1.828125 -0.765625q0.765625 -0.765625 0.765625 -1.84375l0 -7.125l-25.796875 0q-2.203125 0 -4.03125 -1.09375q-1.828125 -1.109375 -2.9375 -2.9375q-1.09375 -1.828125 -1.09375 -4.03125l0 -22.53125q0 -2.203125 1.09375 -4.03125q1.109375 -1.84375 2.9375 -2.9375q1.828125 -1.09375 4.03125 -1.09375l23.203125 0q2.265625 0 4.09375 1.09375q1.828125 1.09375 2.890625 2.9375q1.078125 1.828125 1.078125 4.03125l0 37.71875q0 2.28125 -1.078125 4.109375q-1.0625 1.828125 -2.890625 2.921875q-1.828125 1.109375 -4.09375 1.109375l-24.140625 0zm0.9375 -20.734375l23.203125 0q1.0625 0 1.828125 -0.765625q0.765625 -0.765625 0.765625 -1.828125l0 -22.53125q0 -1.0625 -0.765625 -1.828125q-0.765625 -0.765625 -1.828125 -0.765625l-23.203125 0q-1.0625 0 -1.828125 0.765625q-0.765625 0.765625 -0.765625 1.828125l0 22.53125q0 1.0625 0.765625 1.828125q0.765625 0.765625 1.828125 0.765625z" fill-rule="nonzero"/><path fill="#00b4a6" d="m357.23624 159.39896l337.35434 0l0 5.5118103l-337.35434 0z" fill-rule="evenodd"/><path fill="#ff6b2b" d="m37.83202 159.39896l299.33856 0l0 5.5118103l-299.33856 0z" fill-rule="evenodd"/></g></svg>